<svg version="1.0" xmlns="http://www.w3.org/2000/svg" width="1706.667" height="1552" viewBox="0 0 1280 1164"><path d="M1064.5 1.1c-2.7.6-9.3 2.4-14.5 4.1-10.3 3.5-20.6 4.2-28.5 2-7.8-2.2-16.9-3-23-2.1-23.1 3.6-50.2 31.3-55 56.3-1.6 8.5-3.8 14.2-9.9 26.3-15.7 31.3-46.4 77.2-75.1 112.4-12.6 15.4-40.5 43.8-51.4 52.4-15.9 12.5-30.7 20.3-46.9 24.7-6.4 1.7-11.2 2.1-28.7 2.4-20.4.3-21.3.4-30.4 3.4-5.1 1.7-13.7 4-19 5.1-12.6 2.6-15.7 3.6-21.1 7-7.6 4.7-28.6 9.9-60.5 14.8-46.7 7.2-84.9 9-107.4 5.1-13.8-2.4-12.6-2.4-14.9.1-1.9 1.9-2.4 2-14.3 1-36.2-3.1-47.8-4.3-51.4-5.1-5.3-1.3-5.5-1.2-4.9.4.4 1.1-.5 1.7-3.2 2.2-5.4 1-23.1-.2-28.9-2-5.5-1.7-6.5-1.5-4.1.9 2.9 3 .8 3.8-7.8 3.2-9-.7-18.5-2.7-44.7-9.3-24.7-6.2-39.5-8.5-51.5-8.2-6 .2-9.8.7-9.6 1.3.2.5 2.6 1.9 5.5 3 4.8 1.8 5 2 2.3 2.3-1.6.2-8.1-1.1-14.5-3-10.8-3.1-12.6-3.3-26.6-3.3-17.6 0-17.8.1-47.5 11.7-21.8 8.5-35.7 13.5-45.5 16.3-7 2-19.2 8.4-23.2 12.3-1.5 1.5-4.8 4.9-7.1 7.5-3.3 3.6-6 5.5-10.8 7.3-15.3 5.7-18.5 2.4-20.4-20.7-1.3-16.4-2.3-19-4.9-13.2l-1.3 2.8-1.5-3.5c-.8-1.9-2.6-7.7-3.9-12.9-7.1-27.7-7.6-54.7-1.5-78.6 3.5-13.4 3.9-17.5 1.6-17.5-3 0-15.3 20.3-18.5 30.5-2.5 8-3.6 6.2-3.1-5l.2-4-2.5 4.1c-1.4 2.2-3.6 7.8-4.9 12.4-2.2 7.6-2.5 8-3.1 5-.3-1.8-.6-4.4-.6-5.8 0-3.6-1.4-1.8-3.5 4.3-1.2 3.5-1.7 8-1.6 15.2.1 5.6-.3 10.4-.8 10.7-.4.3-1.6-1.5-2.6-4-1.2-3.2-2-4.3-2.8-3.5-1.6 1.6-1.2 15.9.6 22.6 1.9 6.7 2.1 8.9.8 8.1-.5-.4-1.2-2.4-1.6-4.6-.4-2.2-1.1-4.3-1.7-4.6-.7-.5-.9 2.1-.6 8l.4 8.6-2.1-2c-1.2-1.1-2.4-2-2.8-2-1.1 0-.8 9 .3 13.2.9 3.1.7 4.4-1 7.7-2.6 5.1-2.5 6.2.5 15 2.5 7.3 1.6 9.4-1.4 3.3-1.8-3.5-3.1-4.1-3.1-1.4 0 3.3 3.1 13.7 5.1 17 2.7 4.6 2.4 5-1.1 1.7-1.6-1.6-3-2.5-3-2.1 0 2.5 6.8 14.1 9.7 16.6 3.1 2.8 3.2 3 1.1 3-1.3 0-3.8-.9-5.7-2.1-1.8-1.1-3.6-1.8-3.8-1.5-1.5 1.5 9.2 13.6 15.3 17.3 1.9 1.2 1.9 1.2-.1 1.2-1.2.1-3.7-.8-5.8-1.8-2.7-1.4-3.7-1.5-3.7-.6 0 1.8 7.5 11.2 10.1 12.5 3.3 1.8 1.5 2.2-3 .7-2.2-.8-4.1-1.1-4.1-.7 0 .8 8.7 8.9 11.6 10.7 1.7 1.1 1.6 1.2-1.1.7l-3-.7 4 3.6c3.4 3.1 3.7 3.6 1.9 3.7-1.1 0-4.3-1.1-6.9-2.5-2.7-1.3-5.1-2.3-5.2-2.1-.8.8 12.7 17.8 19.2 24.1 4 3.8 7.7 8 8.4 9.3.9 1.6 1 5.6.5 14-.8 14.9-.1 17.4 9 32 19.8 31.6 23.2 39.8 28.1 67.7 5.9 33.8 8.3 80 6.6 130.5-.6 17.9-1.6 35.4-2.1 39-3.2 19.2-12.8 51.5-19.8 66.2-2.2 4.6-7 12.7-10.8 18-3.8 5.3-9.9 13.9-13.5 19-11.2 15.8-17.1 29.8-15 35.9.5 1.6 1.7 3.7 2.6 4.5 1.9 1.9 1.9 4.7-.1 9.9-.8 2.2-2.6 14.3-3.9 27-1.4 12.6-3.2 27.3-4 32.5-4.7 29.1-12.5 65-16.6 76.2-5.3 14.4-4.8 23.1 1.3 24 2.1.3 2.3.9 2.6 6.5.3 6.1.4 6.3 3.5 7.1 6.6 1.7 9.8 11.4 6 18-1.7 3-1.7 3.1.7 5s2.4 2.2 1.2 6.6c-2.4 9.2-.8 12.1 6.5 11 3.4-.5 4.8-.3 6.3 1.1 1.8 1.6 5.7 12.5 11.5 31.8 5.3 18 14.6 21.7 53 21.6 19.6 0 25.4-1.4 27-6.6.8-3 1.3-3.3 4.8-3.3 6.5 0 10.1-2.7 9-6.8l-.6-2.3 7.4.8c9.3 1 20.5 1 24.2 0 1.5-.4 3.3-1.9 3.9-3.3 1-2.1 1.7-2.5 4.2-2.1 4.8.7 7.6-.8 7.6-4.1 0-3.4-6.4-16.9-12.3-26-5.9-9.1-10.9-14.8-17.5-20.3-4.3-3.6-5.6-5.3-5.9-8-.2-2.3-2.6-6.3-7.6-12.7-20.5-26.5-23.2-35-23.2-74.2 0-35.6 4.3-59.6 15.5-86.4 9.6-23 18.5-36.3 39-58.2l15.1-16.2 9.7 6.4c17.2 11.6 29.3 16 46.8 17.1l10.2.6.6 6.5c2 19.7 12.3 49.9 21.6 63.9 4.9 7.1 10.1 12.3 12.6 12.3 5 0 12.4-11.4 14.8-23.1l1.3-6.4 2.5 5c7.2 14.1 22.2 23.4 25.7 15.9 2.3-5.2 3.5-18.4 3.5-41.4.1-23.4.1-23.5-2.7-31-4.5-11.8-4.5-11.7 4.8-16.9 10.1-5.7 22.1-17.4 30-29.6 3.3-5 9.5-15.9 13.8-24.4 7.2-13.8 8.3-15.5 11.6-16.8 2-.9 12.1-2.4 23.1-3.4 22.2-2.1 30.2-3.5 48.3-8.5 28.3-7.8 50.2-17 75.7-31.9 19.5-11.4 37.7-19.8 55.3-25.5 15.5-5 22.5-6.3 33.2-6.2 11.7.1 22.7-1.2 32.5-3.7 3.8-1 7-1.7 7-1.4 0 .2-1.3 2.1-2.9 4.1-1.6 2-4.7 7-7 11.1-4.4 7.9-4.4 8 3.2 4.7 2-.9 3.7-1.3 3.7-.9 0 .5-1.6 5.2-3.5 10.6-1.9 5.4-3.5 10.7-3.5 11.8 0 3.3 2.8 3.4 6.2.3 2.5-2.3 2.9-2.5 2.3-.9-1.5 4-3.6 13.8-3.3 15.9.3 1.8.8 1.3 3.6-2.7 1.9-2.7 3.6-4.6 3.8-4.4.3.3 0 3.4-.6 6.9-.6 3.5-1 8.4-.8 10.8l.3 4.5 2.8-5c2.3-4.2 2.7-4.5 2.3-2-1.8 10-1.8 15.2-.2 16.6 5.1 4.2 5.4 4.7 6.5 13.5 1.8 13.9 3.1 20.3 5.7 28.9 3.9 13.2 4.4 17 5.4 42.5.9 25.7 4.3 53.9 7.6 63.5.9 2.8 2.9 6.8 4.4 9.1 5 7.1 6.2 13 9 44 1.1 12.2 2.6 26.6 3.4 32 3.1 20.5 5.6 46.3 5.6 57.2 0 10.7.1 11.4 2.5 13.7 1.6 1.7 3.5 2.5 5.8 2.5 4.2 0 7.6 2.5 11.5 8.7 4.3 6.8 6.2 14.2 6.2 24.4 0 13.1.8 14 8.8 9.3 5.9-3.5 6.7-2.5 8.6 9.8 2.8 17.4 7.9 27.9 15.5 31.7 9.9 5.1 30.6 8.5 51.1 8.6 14.1 0 17-.3 20.3-1.9 3.8-1.9 5.4-4.9 4.3-8.4-.6-1.7-.1-1.9 4-1.8 5.6.1 7.8-2.2 7-7.1l-.5-3.3 5.7.6c7 .8 13.2-1.4 13.2-4.5 0-1.4.7-2.1 1.9-2.1 3.4 0 7.1-3.9 7.1-7.3 0-11.7-22.4-40.2-37.3-47.5-3.7-1.8-6.7-3.7-6.7-4.1 0-.5-1.7-2.8-3.9-5.2-2.7-3.1-7.3-6.3-15.9-10.7-23.5-12.4-36-26.5-40.3-45.7-1.8-7.8-1.8-45.1-.1-59.5 3-24.7 5.6-34.7 13.2-50 8.9-18.2 9.6-22.3 8.3-51-1.5-32.7-.7-42.3 6.3-79 6.2-32.4 10.2-47 17.4-64.4 2.2-5.2 5-13.9 6.4-19.3 5-20.3 7.9-25.4 23.5-41.7 6.4-6.7 13.4-14.8 15.6-18 4.1-6.1 5.3-5.9 5.4.6.1 3.5 1.2 3.5 3.2 0 .9-1.5 5.6-9.1 10.3-17 11.4-18.7 20.7-37.4 24.7-49.2 2.7-8 3.2-11 3.1-19 0-5.2-.7-14.1-1.6-19.7-3.9-25.1-1-35.5 16.2-58.7 21.2-28.6 47-89.4 81.7-192.3.3-.9 2.3-.3 6.8 1.7 10 4.5 32.2 11 37.8 11 9.3 0 11.9-5.4 11.9-24-.1-13.7-1.1-22.2-4.5-37.2-1.3-6.2-2.3-11.4-2-11.6.3-.3 7.8.2 16.7 1.2 25.5 2.6 39 1.7 51.6-3.3 5.2-2.1 5.6-2.1 11.2-.5l5.7 1.6 7.3-3.2c8.7-3.8 14.4-4.1 21.1-1.1 4 1.8 7.8 2.2 25.1 3 16.1.7 21.1 1.2 23.8 2.6 7.8 4.1 23.8-.1 28.8-7.6 2.1-3 2.3-4.3 2-11-.4-7.4-.4-7.5 1.9-7.1 4.4.8 7.1-.6 8.3-4.4 1.6-4.9.7-14.4-1.9-19.6-1.5-3-1.7-4.6-1-5.9.5-1 .7-3.1.4-4.6-4-18.9-9.4-30.4-19.7-42.2-8.6-10-37.8-35.9-47.5-42.3-11.3-7.4-27.7-16.2-49.3-26.3-11.3-5.3-22.4-10.5-24.7-11.6-2.2-1.1-9.9-7.1-16.9-13.4-7.1-6.3-15.4-12.8-18.5-14.5-10.5-5.6-22.6-7.2-35.4-4.9z" fill="pink"/></svg>