<svg data-name="Camada 1" xmlns="http://www.w3.org/2000/svg" viewBox="0 0 1071.23 686.28"><path d="M562.62 686.28c-83.85 0-172.46-12.42-263.59-37C199.22 622.4 98.61 581.5.03 527.74l4.26-7.82c98 53.43 198 94.06 297.09 120.76 94.7 25.51 186.62 37.81 273.17 36.58 170.54-2.41 309.55-57.91 391.41-156.21 45.66-54.85 78.9-129.05 91.21-203.59 13.17-79.76.95-151-34.41-200.68-31.31-44-84.87-76.29-154.88-93.47-64.52-15.86-140.57-18.68-219.92-8.18-83.26 11-164.49 36.39-228.73 71.44-69.34 37.84-116 84.87-135 136-15.75 42.39-15.7 97.32.12 146.92 7.94 24.89 19.74 47.88 34.13 66.49 15.48 20.07 33.75 35.07 54.3 44.66 46.26 21.52 108.17 16.65 165.59-13.06 56.38-29.17 95.35-75.68 104.25-124.43 7.54-41.31-5.12-94.17-30.78-128.55-15-20-32.54-31.68-50.82-33.66-20.8-2.26-55.93 9.16-86.45 48.75-18.61 24.14-26.91 49.49-21.14 64.58 6.23 16.3 32.52 30.33 57.07 24 19.81-5.11 35.31-23.31 39.48-46.36l8.76 1.59c-4.79 26.46-22.85 47.42-46 53.4-26.85 6.93-59.08-7.1-67.62-29.44-7-18.2 1.63-46.25 22.4-73.2 20.44-26.58 57.48-56.21 94.42-52.21 20.81 2.25 40.52 15.11 57 37.19 27.46 36.78 40.48 91.23 32.4 135.48-9.38 51.47-50.1 100.33-108.91 130.77-59.86 31-124.69 35.91-173.44 13.22-21.81-10.15-41.19-26.05-57.59-47.27-15.23-19.7-27.2-43-35.57-69.23-16.41-51.43-16.4-108.53 0-152.72 19.76-53.19 67.87-101.85 139.12-140.74C480.14 43.19 562.47 17.46 646.78 6.3c80.44-10.65 157.63-7.77 223.21 8.33 72.11 17.69 127.44 51.22 160 97 36.74 51.58 49.5 125.2 35.94 207.3-12.56 76-46.51 151.8-93.15 207.83-83.55 100.37-225 157-398.16 159.48q-5.97.04-12 .04z" fill="#ff6a9c"/></svg>